<?xml version="1.0" standalone="no"?>
<!DOCTYPE svg PUBLIC "-//W3C//DTD SVG 20010904//EN"
 "http://www.w3.org/TR/2001/REC-SVG-20010904/DTD/svg10.dtd">
<svg version="1.0" xmlns="http://www.w3.org/2000/svg"
 width="604.000000pt" height="604.000000pt" viewBox="0 0 604.000000 604.000000"
 preserveAspectRatio="xMidYMid meet">
<metadata>
Created by potrace 1.14, written by Peter Selinger 2001-2017
</metadata>
<g transform="translate(0.000000,604.000000) scale(0.100000,-0.100000)"
fill="#000000" stroke="none">
<path d="M2850 4519 c-615 -69 -1138 -523 -1290 -1120 -49 -190 -60 -380 -35
-571 27 -204 89 -393 182 -553 287 -498 801 -782 1373 -762 289 10 553 96 792
258 122 83 314 275 397 397 208 307 297 686 248 1052 -63 468 -339 876 -752
1113 -268 153 -601 221 -915 186z m-430 -764 l0 -105 -210 0 -210 0 0 71 c0
67 2 73 34 105 l34 34 176 0 176 0 0 -105z m535 0 l0 -100 -202 -3 -203 -2 0
105 0 105 203 -2 202 -3 0 -100z m535 0 l0 -105 -200 0 -200 0 0 105 0 105
200 0 200 0 0 -105z m493 94 c39 -18 57 -60 57 -133 l0 -66 -207 2 -208 3 -3
89 c-2 49 -1 95 2 103 7 17 322 19 359 2z m57 -829 l0 -490 -1020 0 -1020 0 0
483 c0 266 3 487 7 490 3 4 462 7 1020 7 l1013 0 0 -490z m-1622 -737 l3 -103
-172 0 c-229 0 -249 12 -249 146 l0 64 208 -2 207 -3 3 -102z m537 2 l0 -100
-202 -3 -203 -2 0 105 0 105 203 -2 202 -3 0 -100z m535 0 l0 -105 -200 0
-200 0 0 105 0 105 200 0 200 0 0 -105z m550 31 c0 -68 -2 -76 -29 -105 l-29
-31 -181 0 -181 0 0 98 c0 54 3 102 7 105 3 4 98 7 210 7 l203 0 0 -74z"/>
<path d="M2770 3015 l0 -315 288 144 c158 79 300 151 316 159 l29 16 -312 155
c-171 86 -313 156 -316 156 -3 0 -5 -142 -5 -315z"/>
</g>
</svg>
